<?xml version="1.0" encoding="UTF-8" standalone="no"?> <svg xmlns="http://www.w3.org/2000/svg" xmlns:xlink="http://www.w3.org/1999/xlink" viewBox="0 0 64 64"><defs><style>.cls-1{fill:url(#linear-gradient);}.cls-2{fill:url(#linear-gradient-2);}</style><linearGradient id="linear-gradient" x1="10.64" y1="32" x2="53.36" y2="32" gradientUnits="userSpaceOnUse"><stop offset="0" stop-color="#17a6d7"/><stop offset="1" stop-color="#9d31fe"/></linearGradient><linearGradient id="linear-gradient-2" x1="18.49" y1="24.32" x2="45.51" y2="24.32" xlink:href="#linear-gradient"/></defs><g id="Layer_29" data-name="Layer 29"><path class="cls-1" d="M51.1,19.4c-4.24-4.95.25-11-9-12a13,13,0,0,1-2.83-.64C36.93,5.68,34.93,3,32,3s-4.93,2.68-7.29,3.75a13,13,0,0,1-2.83.64c-9.23,1-4.74,7.05-9,12-4.49,5.6-1.39,7.37,1.49,12.25,1.38,4.73.37,8.76,6.77,9.56V60a1,1,0,0,0,.58.91,1,1,0,0,0,1.08-.16l9.18-8,9.18,8a1,1,0,0,0,1.08.16,1,1,0,0,0,.58-.91V41.21c6.38-.79,5.4-4.83,6.77-9.56C52.48,26.8,55.59,25,51.1,19.4ZM32.66,50.63a1,1,0,0,0-1.32,0L23.16,57.8V41.54c3.34.41,5.27,4.17,8.84,4.17s5.5-3.76,8.84-4.17V57.8ZM49.5,28.12A10.64,10.64,0,0,0,47,34.18c-.24,1.55-.46,3-1.3,3.86-1.63,1.52-5,1.11-7.16,2.08S34.27,43.66,32,43.71c-1.27,0-2.48-.9-3.76-1.85a10.64,10.64,0,0,0-6.06-2.51c-3.75-.41-4.76-1.42-5.17-5.17a10.71,10.71,0,0,0-2.51-6.06c-2.42-3-2.43-4.56,0-7.52A10.67,10.67,0,0,0,17,14.53c.41-3.74,1.41-4.76,5.17-5.16a10.71,10.71,0,0,0,6.06-2.51C33,2.77,34.31,6.55,38.53,8.6c2.12,1,5.53.55,7.16,2.07s1.1,5,2.07,7.16C49.79,22,53.59,23.41,49.5,28.12Z"/><path class="cls-2" d="M32,10.85A13.52,13.52,0,0,0,18.49,24.36c.74,17.92,26.28,17.91,27,0A13.52,13.52,0,0,0,32,10.85Zm0,25a11.52,11.52,0,0,1-11.51-11.5c.63-15.27,22.39-15.27,23,0A11.52,11.52,0,0,1,32,35.86Z"/></g></svg>