<?xml version="1.0" encoding="UTF-8" standalone="no"?> <svg xmlns="http://www.w3.org/2000/svg" xmlns:xlink="http://www.w3.org/1999/xlink" viewBox="0 0 64 64"><defs><style>.cls-1{fill:url(#linear-gradient);}.cls-2{fill:url(#linear-gradient-2);}.cls-3{fill:url(#linear-gradient-3);}.cls-4{fill:url(#linear-gradient-4);}.cls-5{fill:url(#linear-gradient-5);}</style><linearGradient id="linear-gradient" x1="3" y1="32" x2="61" y2="32" gradientUnits="userSpaceOnUse"><stop offset="0" stop-color="#17a6d7"/><stop offset="1" stop-color="#9d31fe"/></linearGradient><linearGradient id="linear-gradient-2" x1="25.61" y1="14.82" x2="38.39" y2="14.82" xlink:href="#linear-gradient"/><linearGradient id="linear-gradient-3" x1="11" y1="24.69" x2="52.52" y2="24.69" xlink:href="#linear-gradient"/><linearGradient id="linear-gradient-4" x1="11" y1="30.71" x2="52.52" y2="30.71" xlink:href="#linear-gradient"/><linearGradient id="linear-gradient-5" x1="11.02" y1="36.72" x2="32.98" y2="36.72" xlink:href="#linear-gradient"/></defs><g id="Layer_49" data-name="Layer 49"><path class="cls-1" d="M56.81,3.69H7.19A4.2,4.2,0,0,0,3,7.89V41.5a4.2,4.2,0,0,0,4.19,4.19h30.7c.32.82,1,1.47,1.35,2.17.37,1.08.2,2.46,1.16,3.4a3.12,3.12,0,0,0,1.58.79v7.26a1,1,0,0,0,1.66.75l3.4-3,3.39,3a1,1,0,0,0,1.66-.75V52.05a3.12,3.12,0,0,0,1.58-.79c1-.94.79-2.32,1.16-3.4.34-.7,1-1.35,1.35-2.17A4.28,4.28,0,0,0,61,41.5V7.89A4.2,4.2,0,0,0,56.81,3.69ZM47.69,55a1,1,0,0,0-1.31,0L44,57.1V52.52c2.61,2,3.5,2,6.11,0V57.1Zm6.08-9.18a5,5,0,0,0-1.15,2.76,2.51,2.51,0,0,1-.37,1.26c-.62.45-2,.34-2.75.73S47.82,51.91,47,52a2.66,2.66,0,0,1-1.2-.65,5,5,0,0,0-2.76-1.14,2.69,2.69,0,0,1-1.26-.37c-.45-.62-.34-2-.73-2.76s-1.33-1.68-1.44-2.46a2.66,2.66,0,0,1,.65-1.2,5,5,0,0,0,1.15-2.76,2.51,2.51,0,0,1,.37-1.26c.62-.45,2-.34,2.75-.72s1.68-1.34,2.47-1.44a2.68,2.68,0,0,1,1.19.65A5,5,0,0,0,51,39a2.69,2.69,0,0,1,1.26.37c.46.62.34,2,.73,2.76s1.33,1.68,1.44,2.46A2.66,2.66,0,0,1,53.77,45.83ZM59,41.5a2.31,2.31,0,0,1-2.78,2.19,18.07,18.07,0,0,0-1.39-2.29c-.51-2.44-.53-4-3.54-4.34-1.72,0-2.41-1.8-4.25-1.81S44.51,37,42.78,37.06c-3,.32-3,1.9-3.54,4.34a18.07,18.07,0,0,0-1.39,2.29H7.19A2.19,2.19,0,0,1,5,41.5V7.89a2.2,2.2,0,0,1,2.19-2.2H56.81A2.2,2.2,0,0,1,59,7.89Z"/><path class="cls-2" d="M26.61,21.65H37.39a1,1,0,0,0,1-1V9a1,1,0,0,0-1-1H26.61a1,1,0,0,0-1,1V20.65A1,1,0,0,0,26.61,21.65Zm1-11.66h8.78v9.66H27.61Z"/><path class="cls-3" d="M51.54,23.69H12a1,1,0,1,0,0,2H51.54A1,1,0,0,0,51.54,23.69Z"/><path class="cls-4" d="M51.54,29.71H12a1,1,0,0,0,0,2H51.54A1,1,0,0,0,51.54,29.71Z"/><path class="cls-5" d="M32,35.72H12a1,1,0,0,0,0,2H32A1,1,0,0,0,32,35.72Z"/></g></svg>