<?xml version="1.0" encoding="UTF-8" standalone="no"?> <svg xmlns="http://www.w3.org/2000/svg" xmlns:xlink="http://www.w3.org/1999/xlink" viewBox="0 0 64 64"><defs><style>.cls-1{fill:url(#linear-gradient);}</style><linearGradient id="linear-gradient" x1="4.27" y1="32" x2="59.73" y2="32" gradientUnits="userSpaceOnUse"><stop offset="0" stop-color="#17a6d7"/><stop offset="1" stop-color="#9d31fe"/></linearGradient></defs><g id="Layer_43" data-name="Layer 43"><path class="cls-1" d="M59.7,46.5,55.34,30.28V21.11a4.62,4.62,0,0,0-1-9.13c-5.5.08-6.3,7.89-1,9.13v8L38.8,25.2l-3-11a5,5,0,1,0-6.75-6.76L17.5,4.3a1,1,0,0,0-1,.26l-12,12a1.07,1.07,0,0,0-.26,1L8.66,33.72v8.22a4.62,4.62,0,0,0,1,9.13c5.5-.08,6.3-7.9,1-9.13v-7l10.56,2.83A5.07,5.07,0,0,0,26.31,43L29.43,54.6a1,1,0,0,0,.71.71L46.5,59.7a.83.83,0,0,0,.56,0,1.44,1.44,0,0,0,.4-.23l12-12A1,1,0,0,0,59.7,46.5Zm-8-29.9a2.63,2.63,0,0,1,5.25,0A2.63,2.63,0,0,1,51.72,16.6ZM33.6,6.6a3.06,3.06,0,1,1-2.16,5.22A3.08,3.08,0,0,1,33.6,6.6ZM12.28,46.44a2.63,2.63,0,0,1-5.25,0A2.63,2.63,0,0,1,12.28,46.44Zm-1.8-13.65L6.57,18.24H14.1a4.62,4.62,0,0,0,9.13-1c-.08-5.5-7.89-6.3-9.13-1H7.68l9.86-9.86,11,3a5,5,0,0,0,5.33,5.34l3,11L29,33.63a5.06,5.06,0,0,0-7.28,2.16ZM16,17.24a2.62,2.62,0,0,1,5.24,0A2.62,2.62,0,0,1,16,17.24Zm8.1,18.5a3.06,3.06,0,0,1,4.33,4.33A3.06,3.06,0,0,1,24.09,35.74Zm23.22,21L45.5,49.3a4.62,4.62,0,0,0-1.28-9c-5.65.1-6.27,8.19-.74,9.17l1.91,7.9L31.21,53.52l-2.94-11A5.08,5.08,0,0,0,30.4,35l7.88-7.88,15.24,4.08,4.1,15.25Zm-3.09-9.25a2.63,2.63,0,0,1,0-5.25A2.63,2.63,0,0,1,44.22,47.51Z"/></g></svg>