<?xml version="1.0" encoding="UTF-8" standalone="no"?> <svg xmlns="http://www.w3.org/2000/svg" xmlns:xlink="http://www.w3.org/1999/xlink" viewBox="0 0 64 64"><defs><style>.cls-1{fill:url(#linear-gradient);}.cls-2{fill:url(#linear-gradient-2);}</style><linearGradient id="linear-gradient" x1="3" y1="32" x2="61" y2="32" gradientUnits="userSpaceOnUse"><stop offset="0" stop-color="#17a6d7"/><stop offset="1" stop-color="#9d31fe"/></linearGradient><linearGradient id="linear-gradient-2" x1="27.59" y1="47.08" x2="36.41" y2="47.08" xlink:href="#linear-gradient"/></defs><g id="Layer_37" data-name="Layer 37"><path class="cls-1" d="M56.23,15H44.58V11.39A4.4,4.4,0,0,0,40.18,7H23.82a4.4,4.4,0,0,0-4.4,4.39V15H7.77A4.78,4.78,0,0,0,3,19.77V52.23A4.78,4.78,0,0,0,7.77,57H56.23A4.78,4.78,0,0,0,61,52.23V19.77A4.78,4.78,0,0,0,56.23,15ZM21.42,11.39A2.4,2.4,0,0,1,23.82,9H40.18a2.4,2.4,0,0,1,2.4,2.39V15H21.42ZM5,19.77A2.77,2.77,0,0,1,7.77,17H56.23A2.77,2.77,0,0,1,59,19.77v6.68A8.56,8.56,0,0,1,50.45,35H13.55A8.56,8.56,0,0,1,5,26.45ZM29.57,37h4.86v4.86H29.57ZM59,52.23A2.77,2.77,0,0,1,56.23,55H7.77A2.77,2.77,0,0,1,5,52.23V32.61A10.55,10.55,0,0,0,13.55,37h14v5.86a1,1,0,0,0,1,1h6.86a1,1,0,0,0,1-1V37h14A10.55,10.55,0,0,0,59,32.61Z"/><path class="cls-2" d="M35.43,46.08H28.57a1,1,0,0,0,0,2h6.86A1,1,0,0,0,35.43,46.08Z"/></g></svg>