<?xml version="1.0" encoding="UTF-8" standalone="no"?> <svg xmlns="http://www.w3.org/2000/svg" xmlns:xlink="http://www.w3.org/1999/xlink" viewBox="0 0 64 64"><defs><style>.cls-1{fill:url(#linear-gradient);}.cls-2{fill:url(#linear-gradient-2);}</style><linearGradient id="linear-gradient" x1="3" y1="32" x2="61" y2="32" gradientUnits="userSpaceOnUse"><stop offset="0" stop-color="#17a6d7"/><stop offset="1" stop-color="#9d31fe"/></linearGradient><linearGradient id="linear-gradient-2" x1="28.27" y1="27.99" x2="35.73" y2="27.99" xlink:href="#linear-gradient"/></defs><g id="Layer_32" data-name="Layer 32"><path class="cls-1" d="M60,57.58H56.89V43.86H60a1,1,0,0,0,1-1.31L56,27.68A1,1,0,0,0,55,27H46.38L33,15.15V11.77h7.8a1,1,0,0,0,1-1V5.42a1,1,0,0,0-1-1H32c-.76,0-1.09.69-1,1.38v9.35L17.62,27H9a1,1,0,0,0-.95.69l-5,14.87a1,1,0,0,0,1,1.31H7.11V57.58H4a1,1,0,0,0,0,2H60A1,1,0,0,0,60,57.58ZM33,6.42h6.8V9.77H33ZM17,57.58H9.11V43.86H17Zm0-15.72H5.39L9.72,29H17ZM38.79,57.58H25.21V48.33H38.79Zm6.21,0H40.79V47.33a1,1,0,0,0-1-1H24.21a1,1,0,0,0-1,1V57.58H19V35.63H45Zm0-23.95H19V28.44L32,16.93,45,28.44Zm9.89,23.95H47V43.86h7.89ZM47,41.86V29h7.28l4.33,12.87Z"/><path class="cls-2" d="M28.27,28a3.73,3.73,0,0,0,7.46,0A3.73,3.73,0,0,0,28.27,28Zm5.46,0a1.73,1.73,0,0,1-3.46,0A1.73,1.73,0,0,1,33.73,28Z"/></g></svg>